<?xml version="1.0" encoding="utf-8"?>
<!-- Generator: Adobe Illustrator 25.0.1, SVG Export Plug-In . SVG Version: 6.00 Build 0)  -->
<svg version="1.1" id="Layer_1" xmlns="http://www.w3.org/2000/svg" xmlns:xlink="http://www.w3.org/1999/xlink" x="0px" y="0px"
	 viewBox="0 0 541.76 260.17" style="enable-background:new 0 0 541.76 260.17;" xml:space="preserve">
<style type="text/css">
	.st0{clip-path:url(#SVGID_2_);fill:#A1C131;}
	.st1{clip-path:url(#SVGID_2_);fill:#0B1825;}
</style>
<g>
	<defs>
		<rect id="SVGID_1_" x="85.18" y="78.71" width="341.73" height="102.76"/>
	</defs>
	<clipPath id="SVGID_2_">
		<use xlink:href="#SVGID_1_"  style="overflow:visible;"/>
	</clipPath>
	<path class="st0" d="M85.2,101.76c6.32,0.4,12.41-1.88,16.78-6.26c4.42-4.42,6.7-10.54,6.25-16.78c0-0.01,0-0.01,0-0.02
		c-5.8,0.33-11.5,2.69-15.93,7.12s-6.79,10.14-7.12,15.94H85.2z"/>
	<path class="st0" d="M117.32,110.84c-4.37,4.37-6.65,10.41-6.26,16.59c0,0.07-0.03,0.14-0.03,0.21c5.81-0.32,11.53-2.68,15.97-7.12
		c4.43-4.43,6.79-10.14,7.12-15.93C127.72,104.16,121.7,106.47,117.32,110.84"/>
	<path class="st0" d="M113.06,106.59c5.47-5.47,12.98-8.36,20.69-8.02c-0.89-4.67-3.14-9.13-6.75-12.75
		c-3.62-3.62-8.08-5.86-12.75-6.75c0.34,7.72-2.54,15.22-8.01,20.69c-5.46,5.46-12.96,8.34-20.69,8.02
		c0.89,4.67,3.13,9.13,6.75,12.75c3.61,3.61,8.08,5.86,12.74,6.75C104.71,119.56,107.6,112.05,113.06,106.59"/>
	<path class="st0" d="M162.19,127.63c0.4-6.32-1.88-12.41-6.26-16.78c-4.42-4.42-10.54-6.7-16.78-6.25c-0.01,0-0.01,0-0.02,0
		c0.33,5.8,2.69,11.5,7.12,15.93c4.43,4.43,10.14,6.79,15.94,7.12V127.63z"/>
	<path class="st0" d="M171.28,95.51c4.37,4.37,10.41,6.65,16.59,6.26c0.07,0,0.14,0.03,0.21,0.03c-0.32-5.81-2.68-11.53-7.12-15.97
		c-4.43-4.43-10.13-6.79-15.93-7.12C164.6,85.11,166.9,91.13,171.28,95.51"/>
	<path class="st0" d="M167.02,99.76c-5.47-5.47-8.36-12.98-8.02-20.69c-4.67,0.89-9.13,3.14-12.75,6.75
		c-3.62,3.62-5.86,8.08-6.75,12.75c7.72-0.34,15.22,2.54,20.69,8.01c5.46,5.46,8.34,12.97,8.02,20.69
		c4.67-0.89,9.13-3.14,12.75-6.75c3.61-3.61,5.86-8.08,6.75-12.74C180,108.12,172.49,105.23,167.02,99.76"/>
	<path class="st0" d="M188.06,158.41c-6.32-0.4-12.41,1.89-16.79,6.26c-4.42,4.42-6.7,10.54-6.25,16.78c0,0.01,0,0.01,0,0.02
		c5.8-0.33,11.5-2.69,15.93-7.12c4.43-4.43,6.79-10.14,7.12-15.94H188.06z"/>
	<path class="st0" d="M155.94,149.33c4.37-4.37,6.65-10.41,6.26-16.59c0-0.07,0.03-0.14,0.03-0.21c-5.81,0.32-11.53,2.68-15.97,7.12
		c-4.43,4.43-6.79,10.14-7.12,15.93C145.55,156.01,151.57,153.7,155.94,149.33"/>
	<path class="st0" d="M160.2,153.58c-5.47,5.47-12.98,8.36-20.69,8.02c0.89,4.67,3.14,9.13,6.75,12.75
		c3.62,3.62,8.08,5.86,12.75,6.75c-0.34-7.72,2.54-15.22,8.01-20.69c5.46-5.46,12.97-8.34,20.69-8.02
		c-0.89-4.67-3.13-9.13-6.75-12.75c-3.61-3.61-8.08-5.86-12.74-6.75C168.55,140.61,165.66,148.12,160.2,153.58"/>
	<path class="st0" d="M111.07,132.54c-0.4,6.32,1.88,12.41,6.26,16.78c4.42,4.42,10.54,6.7,16.78,6.25c0.01,0,0.01,0,0.02,0
		c-0.33-5.8-2.69-11.5-7.12-15.93c-4.43-4.43-10.14-6.79-15.94-7.12V132.54z"/>
	<path class="st0" d="M101.98,164.66c-4.37-4.37-10.41-6.65-16.59-6.26c-0.08,0-0.14-0.03-0.21-0.03
		c0.33,5.81,2.68,11.53,7.12,15.97c4.43,4.43,10.13,6.79,15.93,7.12C108.67,175.06,106.36,169.04,101.98,164.66"/>
	<path class="st0" d="M106.24,160.41c5.47,5.47,8.36,12.98,8.02,20.69c4.67-0.89,9.13-3.14,12.74-6.75
		c3.62-3.62,5.86-8.08,6.75-12.75c-7.72,0.34-15.22-2.54-20.69-8.01c-5.47-5.46-8.34-12.96-8.02-20.69
		c-4.67,0.89-9.13,3.13-12.74,6.75c-3.61,3.61-5.86,8.08-6.75,12.74C93.27,152.05,100.78,154.94,106.24,160.41"/>
	<path class="st1" d="M420.64,92.15c2.32,0,3.93,1.38,4.32,1.69l1.95-2.71c-1.49-1.04-5.36-3.15-10.03-3.15
		c-8.4,0-13.07,5.57-13.07,15.63v4.43h-3.9v3.74h3.9v39.69h12.28v-39.69h6.97v-3.74h-6.97v-7.4
		C416.09,94.71,417.2,92.15,420.64,92.15 M373.9,111.64c5,0,7.26,6.64,7.26,13.27h-14.68C366.48,118.63,368.7,111.64,373.9,111.64
		 M378.81,145.88c-8.09,0-12.33-9.98-12.43-17.22h26.28c0-13.29-8.29-21.18-18.92-21.18c-10.62,0-20.67,8.48-20.67,22.61
		c0,13.97,9.09,21.92,20.91,21.92c11.89,0,16.18-8.85,17.33-10.49l-2.65-1.62C388.06,140.7,385.26,145.88,378.81,145.88
		 M348.3,111.79v-3.74h-6.97V97.87h-4.39l-7.03,10.17l0,0h-4.76v3.74h3.9l0,29c0,6.31,2.35,11.24,10,11.24h8.19V148
		c-5.49,0-5.9-3.51-5.9-8.36v-27.85H348.3z M299.23,111.64c5,0,7.26,6.64,7.26,13.27h-14.68
		C291.81,118.63,294.03,111.64,299.23,111.64 M304.14,145.88c-8.09,0-12.33-9.98-12.43-17.22h26.28c0-13.29-8.29-21.18-18.92-21.18
		c-10.62,0-20.67,8.48-20.67,22.61c0,13.97,9.09,21.92,20.91,21.92c11.89,0,16.18-8.85,17.33-10.49l-2.65-1.62
		C313.39,140.7,310.59,145.88,304.14,145.88 M253.72,107.5c-6.7,0-10.51,3.97-11.58,5.86v-5.32h-12.28v43.44h12.28v-28.01
		c0-5.94,2.19-10.02,6.58-10.02c3.85,0,6.05,2.66,6.05,8.05v29.98h12.28v-31.26C267.05,111.38,261.69,107.5,253.72,107.5"/>
</g>
</svg>
